name C:\Users\u0101727\Documents\MyRepositories\upper-imu-dc\Results\main_tracking\Case_42\FLX01_linearAccelerations_groundFrame.mot
datacolumns 4
datarows 82
range 2.01000000 2.82000000
endheader 
time	radius_imu_x	radius_imu_y	radius_imu_z	
          2.01000000	         -1.23970419	          9.23727101	          1.20670374	
          2.02000000	         -1.19529244	          9.21991411	          1.21068559	
          2.03000000	         -1.14848026	          9.20443098	          1.21235854	
          2.04000000	         -1.09977263	          9.19102902	          1.21179293	
          2.05000000	         -1.04972119	          9.17985055	          1.20893089	
          2.06000000	         -0.99890704	          9.17092585	          1.20355467	
          2.07000000	         -0.94790080	          9.16414381	          1.19529439	
          2.08000000	         -0.89720960	          9.15925413	          1.18368522	
          2.09000000	         -0.84722398	          9.15590526	          1.16826582	
          2.10000000	         -0.79817543	          9.15371392	          1.14870161	
          2.11000000	         -0.75011628	          9.15235383	          1.12491258	
          2.12000000	         -0.70294296	          9.15164120	          1.09717180	
          2.13000000	         -0.65647887	          9.15158682	          1.06613764	
          2.14000000	         -0.61059667	          9.15238824	          1.03279195	
          2.15000000	         -0.56531783	          9.15435372	          0.99827811	
          2.16000000	         -0.52083861	          9.15778516	          0.96369402	
          2.17000000	         -0.47748594	          9.16287073	          0.92993096	
          2.18000000	         -0.43563840	          9.16962510	          0.89760565	
          2.19000000	         -0.39564820	          9.17788868	          0.86707435	
          2.20000000	         -0.35779339	          9.18736901	          0.83848906	
          2.21000000	         -0.32226957	          9.19768549	          0.81184516	
          2.22000000	         -0.28920502	          9.20838509	          0.78698697	
          2.23000000	         -0.25867656	          9.21893656	          0.76358925	
          2.24000000	         -0.23071487	          9.22873994	          0.74116600	
          2.25000000	         -0.20529755	          9.23717219	          0.71913052	
          2.26000000	         -0.18233378	          9.24365846	          0.69688748	
          2.27000000	         -0.16165279	          9.24774887	          0.67392865	
          2.28000000	         -0.14300816	          9.24918585	          0.64991288	
          2.29000000	         -0.12609973	          9.24795065	          0.62471708	
          2.30000000	         -0.11060679	          9.24428020	          0.59844994	
          2.31000000	         -0.09622675	          9.23864984	          0.57142871	
          2.32000000	         -0.08271138	          9.23171964	          0.54412129	
          2.33000000	         -0.06988644	          9.22424559	          0.51705217	
          2.34000000	         -0.05764468	          9.21697035	          0.49068544	
          2.35000000	         -0.04591826	          9.21052841	          0.46532599	
          2.36000000	         -0.03464824	          9.20539629	          0.44107753	
          2.37000000	         -0.02376146	          9.20188643	          0.41785387	
          2.38000000	         -0.01315549	          9.20016453	          0.39541813	
          2.39000000	         -0.00269617	          9.20028041	          0.37344053	
          2.40000000	          0.00776700	          9.20220603	          0.35156957	
          2.41000000	          0.01837271	          9.20586754	          0.32949718	
          2.42000000	          0.02921908	          9.21116571	          0.30700268	
          2.43000000	          0.04034062	          9.21799264	          0.28397949	
          2.44000000	          0.05169053	          9.22624905	          0.26045137	
          2.45000000	          0.06312708	          9.23585809	          0.23657868	
          2.46000000	          0.07440809	          9.24677008	          0.21265228	
          2.47000000	          0.08520285	          9.25895540	          0.18907217	
          2.48000000	          0.09512939	          9.27238381	          0.16630588	
          2.49000000	          0.10381805	          9.28699432	          0.14482572	
          2.50000000	          0.11098761	          9.30267173	          0.12504233	
          2.51000000	          0.11650754	          9.31924600	          0.10725956	
          2.52000000	          0.12042543	          9.33650709	          0.09165534	
          2.53000000	          0.12295557	          9.35421608	          0.07827598	
          2.54000000	          0.12443696	          9.37211055	          0.06704009	
          2.55000000	          0.12527569	          9.38991805	          0.05775910	
          2.56000000	          0.12588730	          9.40738234	          0.05017442	
          2.57000000	          0.12664727	          9.42428866	          0.04400020	
          2.58000000	          0.12784860	          9.44047040	          0.03895992	
          2.59000000	          0.12966286	          9.45579228	          0.03481120	
          2.60000000	          0.13210993	          9.47012079	          0.03136042	
          2.61000000	          0.13505392	          9.48330265	          0.02847182	
          2.62000000	          0.13823836	          9.49517154	          0.02607708	
          2.63000000	          0.14135352	          9.50558564	          0.02418612	
          2.64000000	          0.14411326	          9.51447518	          0.02288962	
          2.65000000	          0.14631722	          9.52187469	          0.02234587	
          2.66000000	          0.14788469	          9.52792725	          0.02275412	
          2.67000000	          0.14885709	          9.53286182	          0.02432357	
          2.68000000	          0.14937227	          9.53695032	          0.02724525	
          2.69000000	          0.14962020	          9.54044928	          0.03166436	
          2.70000000	          0.14979824	          9.54353219	          0.03764740	
          2.71000000	          0.15008439	          9.54622858	          0.04514810	
          2.72000000	          0.15063564	          9.54839448	          0.05398838	
          2.73000000	          0.15160361	          9.54973437	          0.06387053	
          2.74000000	          0.15315202	          9.54987680	          0.07442306	
          2.75000000	          0.15546582	          9.54848006	          0.08526563	
          2.76000000	          0.15875069	          9.54532538	          0.09606578	
          2.77000000	          0.16322371	          9.54036153	          0.10656579	
          2.78000000	          0.16909701	          9.53369371	          0.11657717	
          2.79000000	          0.17655596	          9.52554041	          0.12596207	
          2.80000000	          0.18574180	          9.51619282	          0.13461993	
          2.81000000	          0.19673680	          9.50599206	          0.14248586	
          2.82000000	          0.20955077	          9.49532019	          0.14953802	
